<?xml version="1.0" standalone="no"?>
<!DOCTYPE svg PUBLIC "-//W3C//DTD SVG 20010904//EN"
 "http://www.w3.org/TR/2001/REC-SVG-20010904/DTD/svg10.dtd">
<svg version="1.0" xmlns="http://www.w3.org/2000/svg"
 width="450.000000pt" height="450.000000pt" viewBox="0 0 450.000000 450.000000"
 preserveAspectRatio="xMidYMid meet">
<style>
    g {
      fill: #000000;
    }
    @media (prefers-color-scheme: dark) {
      g {
        fill: #FFFFFF;
      }
    }
</style>
<g transform="translate(0.000000,450.000000) scale(0.100000,-0.100000)"
fill="#000000" stroke="none">
<path d="M1500 4095 c0 -196 4 -355 8 -353 27 10 602 343 602 348 0 4 -546
328 -602 357 -5 2 -8 -156 -8 -352z"/>
<path d="M2708 4267 c-164 -95 -298 -174 -298 -177 0 -8 595 -350 609 -350 8
0 11 94 11 350 0 274 -3 350 -12 349 -7 0 -147 -78 -310 -172z"/>
<path d="M1003 4132 l-333 -207 0 -416 0 -416 -295 -169 -295 -168 0 -398 c0
-219 2 -398 5 -398 3 0 129 72 281 161 152 88 283 163 290 166 12 4 14 -65 16
-415 l3 -420 335 193 335 193 5 427 5 428 410 236 410 237 3 393 c2 333 0 392
-12 388 -7 -3 -188 -105 -401 -227 -213 -122 -394 -224 -401 -227 -12 -4 -14
63 -14 421 0 234 -3 426 -7 426 -5 -1 -158 -94 -340 -208z"/>
<path d="M3168 3912 l-3 -430 -405 234 c-223 128 -408 234 -413 234 -4 0 -6
-176 -5 -392 l3 -392 410 -237 410 -236 5 -427 5 -427 335 -193 335 -194 3
423 2 423 238 -137 c130 -75 263 -152 295 -170 l57 -32 0 394 0 394 -295 169
-294 169 -1 417 0 416 -317 198 c-175 108 -328 204 -340 212 l-23 14 -2 -430z"/>
<path d="M1956 2872 c-235 -136 -303 -179 -293 -188 13 -12 555 -320 581 -330
9 -4 128 58 313 162 164 92 302 170 306 174 4 4 -47 39 -115 77 -68 39 -205
118 -305 176 l-182 105 -305 -176z"/>
<path d="M1500 2217 l0 -382 335 -192 c184 -106 339 -193 345 -193 7 0 10 124
10 379 l0 379 -172 97 c-95 54 -251 142 -345 196 l-173 98 0 -382z"/>
<path d="M2675 2410 l-330 -188 -3 -386 c-1 -212 1 -386 4 -386 4 0 157 87
340 192 l334 192 0 383 c0 211 -3 383 -7 382 -5 -1 -156 -86 -338 -189z"/>
<path d="M4006 2032 c-12 -11 -6 -482 5 -482 15 0 419 233 419 242 0 10 -418
247 -424 240z"/>
<path d="M288 1912 c-114 -64 -208 -119 -208 -122 0 -3 73 -47 163 -97 89 -51
186 -107 215 -123 l52 -30 0 245 c0 135 -3 245 -7 245 -5 0 -101 -53 -215
-118z"/>
<path d="M1117 1532 c-221 -128 -284 -169 -275 -178 7 -6 189 -111 403 -234
215 -123 395 -228 402 -234 9 -8 -95 -72 -403 -250 -229 -131 -412 -242 -407
-246 4 -4 138 -83 296 -174 l288 -165 416 239 c228 132 419 240 424 240 5 0
196 -108 424 -240 l416 -239 291 167 c159 93 290 172 289 178 0 5 -185 115
-410 244 -225 129 -407 237 -406 240 2 3 188 111 414 240 225 129 410 238 411
241 0 6 -574 339 -584 339 -3 0 -194 -107 -425 -239 l-420 -239 -415 239
c-228 132 -421 239 -428 238 -7 0 -142 -75 -301 -167z"/>
<path d="M670 875 l0 -396 23 12 c37 20 631 361 650 374 16 11 -25 37 -319
206 -186 107 -341 196 -346 197 -4 2 -8 -175 -8 -393z"/>
<path d="M3503 1077 c-183 -106 -333 -195 -333 -198 0 -6 662 -389 673 -389 4
0 7 176 7 390 0 215 -3 390 -7 389 -5 0 -157 -87 -340 -192z"/>
</g>
</svg>
